<svg width="64" height="64" viewBox="0 0 64 64" fill="none" xmlns="http://www.w3.org/2000/svg">
<circle cx="32" cy="32" r="32" fill="white"></circle>
<path d="M32.074 47.4927H32.08C40.748 47.4927 47.802 40.4717 47.806 31.8417C47.8118 29.7832 47.4078 27.7441 46.6178 25.8432C45.8277 23.9424 44.6672 22.2177 43.204 20.7697C41.7449 19.3096 40.0114 18.1523 38.1034 17.3646C36.1953 16.5769 34.1503 16.1742 32.086 16.1797C23.411 16.1797 16.356 23.1997 16.353 31.8297C16.3491 34.7775 17.1828 37.6656 18.757 40.1577L19.131 40.7507L17.543 46.5257L23.495 44.9717L24.069 45.3117C26.4948 46.7404 29.2588 47.4935 32.074 47.4927ZM37.475 34.2417C37.909 34.3987 40.233 35.5367 40.705 35.7717V35.7737L40.963 35.8997C41.293 36.0587 41.516 36.1657 41.611 36.3237C41.729 36.5197 41.729 37.4617 41.335 38.5607C40.942 39.6597 39.053 40.6627 38.145 40.7977C37.33 40.9187 36.299 40.9697 35.167 40.6117C34.2519 40.3288 33.3523 39.9976 32.472 39.6197C28.042 37.7157 25.048 33.4447 24.479 32.6337L24.396 32.5157L24.393 32.5117C24.145 32.1827 22.465 29.9537 22.465 27.6477C22.465 25.4807 23.535 24.3447 24.028 23.8217L24.12 23.7227C24.553 23.2527 25.065 23.1347 25.38 23.1347C25.697 23.1347 26.011 23.1367 26.287 23.1507C26.321 23.1527 26.357 23.1527 26.394 23.1527C26.669 23.1507 27.012 23.1497 27.351 23.9587C27.488 24.2857 27.691 24.7787 27.903 25.2907C28.302 26.2567 28.731 27.2977 28.808 27.4517C28.926 27.6877 29.005 27.9617 28.848 28.2757L28.778 28.4157C28.661 28.6527 28.575 28.8297 28.375 29.0607C28.295 29.1537 28.211 29.2547 28.128 29.3547C27.967 29.5507 27.805 29.7447 27.665 29.8847C27.429 30.1187 27.183 30.3737 27.459 30.8447C27.734 31.3167 28.683 32.8567 30.089 34.1047C31.1193 35.028 32.2987 35.7699 33.577 36.2987C33.707 36.3547 33.813 36.4007 33.891 36.4387C34.363 36.6747 34.639 36.6357 34.915 36.3217C35.191 36.0087 36.097 34.9487 36.412 34.4767C36.727 34.0067 37.042 34.0847 37.475 34.2417Z" fill="#03D531"></path>
<path d="M32 64C49.673 64 64 49.673 64 32C64 14.327 49.673 0 32 0C14.327 0 0 14.327 0 32C0 49.673 14.327 64 32 64ZM32.08 13C37.141 13.002 41.892 14.963 45.463 18.522C49.036 22.082 51.002 26.812 51 31.844C50.996 42.226 42.507 50.674 32.08 50.674H32.072C28.9142 50.6746 25.8062 49.8867 23.03 48.382L13 51L15.684 41.242C14.0259 38.3823 13.1547 35.1346 13.159 31.829C13.162 21.445 21.65 13 32.079 13H32.08Z" fill="#03D531"></path>
</svg>
